<svg width="191" height="55" viewBox="0 0 191 55" fill="none" xmlns="http://www.w3.org/2000/svg">
<path d="M51.25 27C51.25 39.304 41.4967 49.25 29.5 49.25C17.5033 49.25 7.75 39.304 7.75 27C7.75 14.696 17.5033 4.75 29.5 4.75C41.4967 4.75 51.25 14.696 51.25 27Z" stroke="white" stroke-width="1.5"/>
<path d="M187 16.1882C186.879 16.4245 186.718 16.6495 186.648 16.9046C186.19 18.551 184.722 19.7549 183.118 19.7737C181.451 19.7962 179.869 18.506 179.39 16.7395C178.979 15.2281 179.723 13.5066 181.18 12.5915C183.283 11.2714 185.978 12.389 186.652 14.8456C186.71 15.0593 186.883 15.2431 187.003 15.4381V16.1882H187Z" fill="#EC7100"/>
<path d="M133.798 28.3475C134.021 28.0212 134.274 27.7099 134.461 27.3649C136.684 23.2244 140.068 20.8504 144.704 20.7978C149.154 20.7453 152.6 22.8231 155.002 26.6786C155.175 26.9561 155.343 27.2336 155.515 27.5149C155.607 27.4962 155.698 27.4774 155.793 27.4587C155.793 27.1474 155.793 26.8398 155.793 26.5286C155.782 25.1559 155.782 23.7795 155.757 22.4068C155.746 21.908 155.881 21.6717 156.423 21.6717C163.015 21.6867 169.604 21.683 176.196 21.6905C176.28 21.6905 176.368 21.7355 176.58 21.7955C176.58 23.2581 176.613 24.7433 176.555 26.2285C176.54 26.5436 176.222 26.8773 175.987 27.1511C172.94 30.6878 169.882 34.2132 166.828 37.7424C166.711 37.8774 166.608 38.0275 166.388 38.3237C166.795 38.38 167.07 38.4438 167.341 38.4475C171.094 38.4813 174.848 38.485 178.598 38.5525C179.397 38.5675 179.558 38.2787 179.554 37.5324C179.529 32.5968 179.558 27.6574 179.525 22.7218C179.518 21.908 179.715 21.6267 180.539 21.6605C182.184 21.728 183.835 21.6905 185.48 21.6755C185.934 21.6755 186.227 21.7355 186.227 22.3243C186.212 29.8215 186.216 37.3224 186.209 44.8195C186.209 44.9358 186.157 45.0558 186.11 45.2621C184.246 45.2621 182.392 45.2621 180.539 45.2621C172.79 45.2546 165.041 45.2283 157.291 45.2584C156.405 45.2584 156.259 44.9771 156.16 44.1145C155.885 41.7179 156.705 39.9514 158.339 38.2337C161.1 35.3271 163.616 32.1767 166.231 29.1239C166.344 28.9889 166.432 28.8313 166.626 28.5388H155.999C156.427 30.4103 156.973 32.2105 156.552 34.2057H139.83C139.793 36.216 141.47 38.2562 143.452 38.6838C145.719 39.1751 147.682 38.6838 149.205 36.7823C149.319 36.6398 149.568 36.4748 149.71 36.5085C151.662 36.9586 153.611 37.4386 155.669 37.9412C154.966 39.7677 153.907 41.1516 152.567 42.303C146.583 47.4374 137.962 45.6146 134.402 38.4888C134.256 38.2 133.992 37.9712 133.783 37.7162C133.571 36.2835 133.179 34.8433 133.194 33.4106C133.212 31.7229 133.582 30.039 133.802 28.355L133.798 28.3475ZM149.659 30.3428C149.256 28.04 146.847 26.5135 144.191 26.7086C142.404 26.8398 140.13 28.7001 140.222 30.3428H149.659Z" fill="#EC7100"/>
<path d="M83.688 34.2855C83.7063 36.6783 85.8488 38.7598 88.4124 38.8573C90.2362 38.9248 91.8402 38.3923 93.0305 36.8621C93.1696 36.6858 93.4882 36.5058 93.6787 36.5508C95.6087 36.9821 97.5277 37.4584 99.4541 37.9235C98.3957 41.3889 94.0742 45.3381 88.4746 45.1993C82.864 45.0606 78.2715 40.9238 77.2131 35.1369C76.1914 29.5674 79.2494 23.7655 84.3839 21.6577C87.6469 20.3188 90.8917 20.4913 94.0339 22.0965C97.1285 23.6792 99.0952 26.2858 100.282 29.6499C101.205 25.1119 103.365 21.5302 107.606 19.7862C111.902 18.016 115.85 18.9611 119.395 22.3253V19.6775H125.427V44.4643H119.479V42.0115C119.161 42.2065 118.974 42.2815 118.835 42.409C114.316 46.662 107.339 45.9907 103.248 40.9201C101.842 39.1761 100.89 37.2146 100.534 34.9718C100.458 34.4843 100.333 34.188 99.7507 34.188C94.4734 34.2105 89.1961 34.2068 83.9188 34.2105C83.8602 34.2105 83.8052 34.2443 83.6844 34.2818L83.688 34.2855ZM119.728 31.8327C119.71 31.5589 119.703 31.1164 119.644 30.6851C119.274 27.9847 117.905 25.9895 115.396 25.0669C112.836 24.1293 110.393 24.4931 108.357 26.5108C106.574 28.281 106.105 30.5201 106.281 32.9579C106.621 37.6497 110.968 40.6838 115.224 39.2099C118.022 38.2385 119.747 35.4744 119.728 31.8327ZM93.5395 30.325C93.2392 28.2698 91.0199 26.6646 88.6101 26.6946C86.3432 26.7208 84.274 28.341 84.025 30.325H93.5395Z" fill="white"/>
<path d="M57.693 45.1616V11.5574C57.7699 11.5011 57.8175 11.4336 57.8651 11.4336C61.9119 11.5686 65.977 11.5011 69.9982 11.9024C73.8838 12.2887 76.7294 15.5741 77.0736 19.5721C77.1835 20.836 77.1615 22.1449 76.9601 23.3938C76.4474 26.5667 74.4881 28.5882 71.6791 29.8334C71.4594 29.9309 71.247 30.0434 70.9101 30.2047C73.4993 35.1891 76.0592 40.1247 78.6997 45.2103C76.4511 45.2103 74.3856 45.2366 72.3237 45.1766C72.0747 45.1691 71.7634 44.764 71.6096 44.4715C69.3756 40.211 67.1636 35.9392 64.9479 31.6674C64.904 31.5849 64.8857 31.4761 64.8234 31.4199C64.589 31.2248 64.34 31.0448 64.0983 30.861C64.0031 31.1236 63.8236 31.3861 63.8199 31.6486C63.798 33.7114 63.8053 35.7704 63.8053 37.8332C63.8053 39.9559 63.8053 42.0824 63.8053 44.2052C63.8053 44.509 63.7797 44.8128 63.765 45.1616H57.6893H57.693ZM63.809 21.0911C63.809 22.0587 63.776 23.0301 63.8346 23.9939C63.8492 24.2302 64.1715 24.6503 64.3436 24.6465C65.8342 24.6052 67.3467 24.624 68.8006 24.3502C70.5622 24.0202 71.2983 22.8163 71.2067 20.9335C71.1262 19.2571 70.0201 17.9369 68.4014 17.7494C67.1306 17.6031 65.8452 17.6181 64.5707 17.5356C63.9445 17.4944 63.7833 17.7906 63.8016 18.3757C63.8346 19.2796 63.809 20.1872 63.809 21.0948V21.0911Z" fill="white"/>
<path d="M133.798 28.3482C133.582 30.0322 133.209 31.7161 133.19 33.4038C133.176 34.8365 133.568 36.273 133.78 37.7094C133.78 40.1697 133.78 42.63 133.78 45.1503H127.792V10.6348H133.798V28.3445V28.3482Z" fill="white"/>
<path d="M40.8905 16.4553C40.8283 16.639 40.7367 16.9653 40.6085 17.2766C37.4443 24.8113 34.2765 32.346 31.0977 39.8731C30.9328 40.2632 30.7351 40.6945 30.4275 40.9608C29.8049 41.4933 28.9882 41.1183 28.6696 40.1769C27.9005 37.9116 27.1204 35.6464 26.41 33.3586C26.1353 32.4772 25.7471 31.9597 24.7839 31.7646C22.4547 31.2921 20.1585 30.6658 17.8403 30.1332C17.247 29.9982 16.683 29.7319 16.7489 29.1056C16.8002 28.6443 17.1701 28.0554 17.5693 27.8229C24.6411 23.7087 31.7385 19.6394 38.836 15.5627C39.953 14.9213 40.8722 15.2626 40.8905 16.459V16.4553Z" fill="#EC7100"/>
</svg>
